<svg xmlns="http://www.w3.org/2000/svg" viewBox="0 0 60 60" fill="none" aria-hidden="true">
  <g stroke="currentColor" stroke-width="2.2" stroke-linecap="round" stroke-linejoin="round" fill="none">
    <!-- seated figure -->
    <circle cx="30" cy="16" r="4.2"/>
    <path d="M30 20.5 C30 26, 22 27, 22 33 C22 38, 27 40, 30 40 C33 40, 38 38, 38 33 C38 27, 30 26, 30 20.5 Z"/>
    <path d="M22 33 C16 33, 14 38, 14 40"/>
    <path d="M38 33 C44 33, 46 38, 46 40"/>
    <!-- lotus petals -->
    <path d="M30 40 C24 44, 22 50, 24 54 C28 52, 30 46, 30 40 Z"/>
    <path d="M30 40 C36 44, 38 50, 36 54 C32 52, 30 46, 30 40 Z"/>
    <path d="M30 40 C30 46, 28 52, 22 55 C20 50, 24 43, 30 40 Z" opacity="0.55"/>
    <path d="M30 40 C30 46, 32 52, 38 55 C40 50, 36 43, 30 40 Z" opacity="0.55"/>
  </g>
</svg>
